<?xml version="1.0" encoding="UTF-8" standalone="no"?>
<!-- Created with Inkscape (http://www.inkscape.org/) -->

<svg
   version="1.1"
   id="svg182"
   width="401.33334"
   height="350.66666"
   viewBox="0 0 401.33334 350.66666"
   sodipodi:docname="logo.svg"
   inkscape:export-filename="logo.png"
   inkscape:export-xdpi="300"
   inkscape:export-ydpi="300"
   inkscape:version="1.2.1 (9c6d41e410, 2022-07-14)"
   xmlns:inkscape="http://www.inkscape.org/namespaces/inkscape"
   xmlns:sodipodi="http://sodipodi.sourceforge.net/DTD/sodipodi-0.dtd"
   xmlns="http://www.w3.org/2000/svg"
   xmlns:svg="http://www.w3.org/2000/svg">
  <defs
     id="defs186">
    <rect
       x="113.16239"
       y="225.49271"
       width="175.56812"
       height="42.851935"
       id="rect1394" />
    <rect
       x="113.16239"
       y="225.49271"
       width="175.56812"
       height="42.851936"
       id="rect1394-0" />
    <clipPath
       clipPathUnits="userSpaceOnUse"
       id="clipPath654">
      <path
         style="fill:#000000;stroke-width:0.816265"
         d="m 69.684605,177.30025 75.645105,-75.54834 c 110.93007,18.14837 222.50805,35.48413 257.77527,148.52701 l -112.3039,138.76225 -96.59299,-10.27869 -50.62403,9.25083 -26.18485,71.9508 L 33.02582,433.75346 9.7504009,354.09366 33.607705,201.96909 Z"
         id="path656"
         sodipodi:nodetypes="ccccccccccc" />
    </clipPath>
    <clipPath
       clipPathUnits="userSpaceOnUse"
       id="clipPath658">
      <path
         style="fill:#000000;stroke-width:0.816265"
         d="m 69.684605,177.30025 75.645105,-75.54834 c 110.93007,18.14837 222.50805,35.48413 257.77527,148.52701 l -112.3039,138.76225 -96.59299,-10.27869 -50.62403,9.25083 -26.18485,71.9508 L 33.02582,433.75346 9.7504009,354.09366 33.607705,201.96909 Z"
         id="path660"
         sodipodi:nodetypes="ccccccccccc" />
    </clipPath>
    <clipPath
       clipPathUnits="userSpaceOnUse"
       id="clipPath662">
      <path
         style="fill:#000000;stroke-width:0.816265"
         d="m 69.684605,177.30025 75.645105,-75.54834 c 110.93007,18.14837 222.50805,35.48413 257.77527,148.52701 l -112.3039,138.76225 -96.59299,-10.27869 -50.62403,9.25083 -26.18485,71.9508 L 33.02582,433.75346 9.7504009,354.09366 33.607705,201.96909 Z"
         id="path664"
         sodipodi:nodetypes="ccccccccccc" />
    </clipPath>
    <clipPath
       clipPathUnits="userSpaceOnUse"
       id="clipPath666">
      <path
         style="fill:#000000;stroke-width:0.816265"
         d="m 69.684605,177.30025 75.645105,-75.54834 c 110.93007,18.14837 222.50805,35.48413 257.77527,148.52701 l -112.3039,138.76225 -96.59299,-10.27869 -50.62403,9.25083 -26.18485,71.9508 L 33.02582,433.75346 9.7504009,354.09366 33.607705,201.96909 Z"
         id="path668"
         sodipodi:nodetypes="ccccccccccc" />
    </clipPath>
    <clipPath
       clipPathUnits="userSpaceOnUse"
       id="clipPath670">
      <path
         style="fill:#000000;stroke-width:0.816265"
         d="m 69.684605,177.30025 75.645105,-75.54834 c 110.93007,18.14837 222.50805,35.48413 257.77527,148.52701 l -112.3039,138.76225 -96.59299,-10.27869 -50.62403,9.25083 -26.18485,71.9508 L 33.02582,433.75346 9.7504009,354.09366 33.607705,201.96909 Z"
         id="path672"
         sodipodi:nodetypes="ccccccccccc" />
    </clipPath>
  </defs>
  <sodipodi:namedview
     id="namedview184"
     pagecolor="#ffffff"
     bordercolor="#000000"
     borderopacity="0.25"
     inkscape:showpageshadow="2"
     inkscape:pageopacity="0.0"
     inkscape:pagecheckerboard="0"
     inkscape:deskcolor="#d1d1d1"
     showgrid="false"
     inkscape:zoom="2.4036254"
     inkscape:cx="176.19218"
     inkscape:cy="133.9643"
     inkscape:window-width="2560"
     inkscape:window-height="1369"
     inkscape:window-x="1912"
     inkscape:window-y="575"
     inkscape:window-maximized="1"
     inkscape:current-layer="g188" />
  <g
     inkscape:groupmode="layer"
     inkscape:label="Image"
     id="g188">
    <g
       id="g682"
       inkscape:export-filename="logo.png"
       inkscape:export-xdpi="300"
       inkscape:export-ydpi="300">
      <g
         id="g300"
         transform="matrix(0.714983,0,0,0.80951632,-3.6430651,-93.186823)">
        <path
           style="fill:#d0d0d0;stroke-width:0.666667"
           d="m 93.219651,450.28998 c -6.969758,-2.27466 -13.029985,-7.67938 -16.018965,-14.28625 -2.487,-5.49729 -2.84892,-13.6439 -0.849367,-19.11879 0.803487,-2.2 1.578613,-4.45 1.722507,-5 0.173166,-0.66191 -6.498494,-6.29589 -19.733321,-16.66407 -10.997222,-8.61524 -19.86223,-16.00993 -19.70002,-16.43264 0.174344,-0.45433 -0.94915,-1.08183 -2.747897,-1.53475 -7.405358,-1.86469 -13.061428,-6.55165 -16.637065,-13.78645 -2.097148,-4.2433 -2.513616,-5.83053 -2.759613,-10.51737 -0.635303,-12.10411 5.638727,-22.4115 16.27238,-26.73334 l 3.896604,-1.5837 6.576849,-29.77304 6.57685,-29.77304 -1.894818,-4.1008 c -1.703174,-3.68605 -1.894816,-4.81228 -1.894816,-11.13537 0,-6.79254 0.08653,-7.20966 2.514895,-12.12312 4.378246,-8.85878 11.691738,-13.82884 21.138578,-14.36522 3.987294,-0.22639 5.831754,0.0121 9.013194,1.16566 2.2,0.79767 4.510013,1.50437 5.133367,1.57044 0.79338,0.0841 7.370038,-8.77917 21.923887,-29.54652 11.43479,-16.31667 21.20382,-30.29518 21.70896,-31.06337 0.81151,-1.2341 0.70551,-1.85505 -0.91039,-5.33334 -1.6237,-3.49507 -1.83034,-4.72178 -1.84233,-10.93662 -0.0126,-6.54706 0.12559,-7.28424 2.13604,-11.39275 2.58883,-5.29048 7.36417,-9.98392 12.70509,-12.48721 3.29621,-1.54494 4.66905,-1.78671 10.14538,-1.78671 5.46486,0 6.85214,0.24321 10.11676,1.77361 4.17684,1.95802 9.13371,6.18959 11.23697,9.59273 0.7494,1.21256 2.02639,4.04116 2.83774,6.28577 l 1.47519,4.08112 29.33334,15.23948 29.33333,15.23948 2.14484,-4.49445 c 2.57446,-5.3947 7.26855,-10.0474 12.70978,-12.5977 3.29621,-1.54493 4.66905,-1.78671 10.14538,-1.78671 5.47633,0 6.84917,0.24178 10.14538,1.78671 5.38391,2.52344 10.12556,7.19877 12.66434,12.48721 1.72514,3.59358 2.15913,5.42369 2.38547,10.05942 0.26759,5.4806 -0.17299,7.67123 -2.84086,14.12513 -0.3761,0.90983 4.13094,4.19091 23.55342,17.14666 l 24.01852,16.02153 3.8702,-1.81333 c 3.36231,-1.57536 4.70317,-1.81333 10.21755,-1.81333 5.81038,0 6.71868,0.18281 10.73667,2.16085 5.28621,2.6024 9.96769,7.37071 12.46261,12.69377 1.58235,3.37605 1.7867,4.61267 1.7867,10.81205 0,6.19938 -0.20435,7.436 -1.7867,10.81204 -2.49492,5.32306 -7.1764,10.09138 -12.46261,12.69377 -4.01799,1.97805 -4.92629,2.16085 -10.73667,2.16085 -5.49153,0 -6.86133,-0.2409 -10.1594,-1.7867 -5.1268,-2.40293 -10.05652,-7.15814 -12.50918,-12.06635 -1.10666,-2.21462 -2.0121,-4.42866 -2.0121,-4.92009 0,-0.49144 -0.20896,-0.89352 -0.46435,-0.89352 -0.42858,0 -43.05352,11.41374 -43.32184,11.60035 -0.0657,0.0457 1.95248,13.12934 4.48492,29.07471 2.53244,15.94538 4.61123,29.3666 4.61952,29.82494 0.008,0.45833 0.54008,0.83626 1.18174,0.83984 2.0889,0.0117 7.76091,3.08228 10.98511,5.94694 2.09148,1.85825 3.99782,4.51216 5.66667,7.88886 2.43071,4.91821 2.51489,5.32517 2.51489,12.15769 0,6.83252 -0.0842,7.23948 -2.51489,12.15769 -2.88228,5.8319 -6.80691,9.74095 -12.48511,12.43559 -3.15319,1.49638 -4.55358,1.73998 -10,1.73955 -5.1739,-4.1e-4 -6.93384,-0.27734 -9.61356,-1.51275 -4.42951,-2.04208 -8.82975,-5.75492 -11.1426,-9.4019 l -1.91051,-3.01255 v 2.17136 c 0,2.16992 -0.002,2.17112 -2.83333,1.79009 -1.55833,-0.20971 -16.93333,-1.73403 -34.16667,-3.38739 -17.23333,-1.65336 -32.30915,-3.16392 -33.50181,-3.35678 l -2.16849,-0.35068 0.42026,-4.80278 c 0.23115,-2.64153 0.64084,-5.04666 0.91044,-5.34473 0.39836,-0.44045 55.85793,4.58099 65.75731,5.95381 l 2.75105,0.38152 0.28062,-6.23003 c 0.22054,-4.89625 0.65222,-7.03712 2.01638,-9.99997 l 1.73577,-3.76994 -13.43409,-13.25454 c -7.38876,-7.28999 -16.7341,-16.40114 -20.76744,-20.24698 l -7.33333,-6.99244 -4,2.01692 c -3.61485,1.82272 -4.60983,2.01688 -10.33333,2.01643 -5.10062,-4e-4 -6.94606,-0.28345 -9.4813,-1.45424 l -3.14797,-1.45374 -0.59559,2.12091 c -0.32758,1.1665 -2.91914,9.86332 -5.75904,19.32628 l -5.16344,17.20538 1.907,4.12796 c 1.71694,3.71653 1.907,4.82907 1.907,11.16252 0,6.79254 -0.0865,7.20966 -2.51489,12.12312 -4.37825,8.85878 -11.69174,13.82883 -21.13858,14.36521 -3.98729,0.2264 -5.83175,-0.0121 -9.01319,-1.16566 -2.2,-0.79766 -4.50962,-1.50436 -5.13248,-1.57044 -0.80668,-0.0856 -4.10456,4.62645 -11.46359,16.37924 l -10.33111,16.49938 1.78342,3.83396 c 1.57261,3.38073 1.78503,4.66144 1.79693,10.83395 0.0126,6.54705 -0.12559,7.28424 -2.13604,11.39275 -2.6016,5.31658 -7.39742,10.01512 -12.70509,12.4474 -4.60162,2.10873 -12.808829,2.69339 -17.288019,1.23156 z m -3.11778,-48.85751 c 5.50179,-2.5188 12.472949,-2.87667 17.927089,-0.92031 2.2,0.78912 4.45,1.5696 5,1.7344 0.71057,0.21292 4.03811,-4.59858 11.49685,-16.62399 l 10.49684,-16.92362 -1.58073,-3.57367 c -0.8694,-1.96552 -1.75857,-4.09867 -1.97592,-4.74034 -0.32002,-0.94474 -1.19177,-1.16741 -4.58279,-1.17055 -2.30317,-0.002 -14.23758,-0.43598 -26.52092,-0.9641 -12.283331,-0.5281 -24.827531,-1.04205 -27.875998,-1.1421 l -5.542666,-0.18189 -1.572127,3.86814 c -2.7049,6.65525 -6.440927,11.03103 -12.599642,14.75717 -0.906602,0.54851 1.942893,3.05841 16.077602,14.16157 9.448727,7.4222 17.218247,13.4972 17.265607,13.5 0.04733,0.003 1.84142,-0.79852 3.986805,-1.78071 z m 41.600269,-54.04753 c 0.003,-0.64167 0.70197,-2.66667 1.55197,-4.5 l 1.54547,-3.33333 -24.24597,-32.66667 C 97.218331,288.91827 86.077546,273.8335 85.796313,273.36322 c -0.39576,-0.66179 -1.403714,-0.44651 -4.45948,0.95247 -5.450267,2.49521 -12.450934,2.89352 -17.968294,1.02234 -2.196567,-0.74496 -4.078313,-1.26992 -4.181653,-1.16658 -0.10334,0.10335 -2.589347,11.10616 -5.524465,24.4507 -2.935114,13.34453 -5.480754,24.7316 -5.656977,25.30459 -0.230844,0.75059 0.662244,1.44908 3.195048,2.49887 5.338787,2.2128 10.016494,6.68695 12.792454,12.23576 1.30314,2.60483 2.369346,5.29574 2.369346,5.97981 0,1.04841 0.54974,1.25311 3.5,1.30329 1.925,0.0327 15.050001,0.59056 29.166669,1.23959 34.951049,1.60691 32.665409,1.59286 32.673179,0.20088 z m 14.39973,-17.95247 c 5.50145,-2.51864 12.41026,-2.86748 18.17157,-0.91752 2.33447,0.79012 4.31769,1.3466 4.40717,1.23662 0.0895,-0.10998 2.73838,-8.82386 5.88643,-19.36418 l 5.72373,-19.1642 -1.79757,-3.8358 c -1.59465,-3.40276 -1.79757,-4.62601 -1.79757,-10.83578 0,-6.24788 0.19754,-7.42177 1.83858,-10.92537 1.16654,-2.49054 1.61628,-4.19633 1.2304,-4.66667 -0.3345,-0.40771 -8.16849,-19.4913 -17.40888,-42.40796 -9.24038,-22.91667 -17.02066,-42.0679 -17.28952,-42.55829 -0.26886,-0.49039 -2.25674,-1.61016 -4.41753,-2.48837 -3.10079,-1.26025 -4.09469,-1.42358 -4.71635,-0.77504 -0.69308,0.72303 -41.920309,59.63058 -43.100519,61.58418 -0.25334,0.41936 0.36237,2.51936 1.36826,4.66666 1.63007,3.47976 1.82889,4.66516 1.82889,10.90419 0,6.12095 -0.21509,7.46046 -1.71273,10.66667 l -1.71273,3.66666 24.712729,33.47046 c 13.592,18.40874 24.75148,33.48374 24.79884,33.5 0.0473,0.0163 1.84142,-0.77406 3.9868,-1.75626 z m 122.23042,-29.63868 c -2.42496,-15.34688 -4.5519,-28.04631 -4.72654,-28.22094 -0.34575,-0.34576 -34.3526,8.6596 -35.79079,9.47776 -0.86354,0.49125 -3.43088,6.75549 -3.66645,8.94604 -0.0719,0.66857 8.05906,9.0802 20.3984,21.10253 l 20.51796,19.99082 3.83822,-1.69639 3.83823,-1.69639 z m -23.47,-34.93321 c 14.66145,-3.9492 16.83334,-4.70118 16.83334,-5.8283 0,-1.24571 -7.02986,-46.58228 -7.69829,-49.64734 -0.17991,-0.825 -0.72349,-1.5 -1.20793,-1.5 -2.14848,0 -9.19626,-4.30462 -12.0595,-7.36565 -2.81906,-3.01381 -6.36158,-9.40035 -6.37148,-11.48669 -0.003,-0.75454 -59.84396,-32.26738 -60.24331,-31.72503 -0.0988,0.13422 -0.98729,1.9314 -1.97437,3.99373 -2.18816,4.57182 -7.22497,9.43214 -12.0763,11.65315 l -3.58859,1.64291 15.7269,39.14379 c 8.64979,21.52908 15.81511,39.25966 15.92293,39.40128 0.10782,0.14162 1.78016,-0.45502 3.71632,-1.32586 2.90343,-1.30591 4.63006,-1.58466 9.85362,-1.59082 5.49878,-0.007 6.84006,0.22998 10.17883,1.79454 5.3528,2.50836 10.40791,7.77579 12.83778,13.37698 1.07663,2.48179 2.26333,4.39651 2.63711,4.25494 0.37378,-0.14158 8.25461,-2.29781 17.51294,-4.79163 z m 51.50017,-13.98248 21.66683,-5.86507 1.19022,-3.39738 c 0.65462,-1.86856 1.33575,-3.84738 1.51362,-4.39738 0.23137,-0.7154 -6.50453,-5.493 -23.66791,-16.78706 l -23.99133,-15.78705 -4.06824,1.78706 c -3.63958,1.59876 -4.03663,1.96266 -3.76823,3.45372 0.16501,0.91667 1.91061,11.95645 3.87911,24.53287 2.95845,18.90099 3.7525,22.8193 4.5791,22.59578 0.55,-0.14873 10.75007,-2.9097 22.66683,-6.13549 z m -45.98015,188.8571 c -2.61356,-1.38036 -4.07021,-4.10472 -10.66691,-19.95008 -7.65449,-18.38621 -8.05729,-19.23352 -9.14325,-19.23352 -0.70333,0 -0.87652,3.67894 -0.87652,18.61905 0,21.07329 0.0862,20.71429 -4.9763,20.71429 -2.01215,0 -3.0031,-0.31804 -3.28571,-1.05453 -0.71802,-1.87113 -0.44039,-39.12337 0.31177,-41.83206 0.86339,-3.10931 3.51412,-4.45157 8.76216,-4.43692 4.00603,0.0112 6.17923,0.91969 7.9687,3.33131 0.68338,0.92096 4.49296,9.47096 8.46574,19 4.87992,11.7049 7.57962,17.39546 8.32177,17.54108 0.99958,0.19613 1.09853,-1.49303 1.09853,-18.7517 0,-15.586 0.16904,-19.10754 0.94821,-19.7542 0.53059,-0.44035 2.36569,-0.69651 4.16667,-0.58162 l 3.21846,0.2053 v 21.4856 21.4856 l -1.8263,1.82554 c -1.5674,1.56677 -2.46519,1.8561 -6.33333,2.04106 -2.81913,0.13479 -5.12372,-0.1102 -6.15369,-0.6542 z m 29.31332,0.25861 -3,-0.44221 -0.17569,-22.62431 c -0.0973,-12.53267 0.088,-22.88795 0.41534,-23.21534 0.79183,-0.79183 22.10475,-1.47919 26.97962,-0.87011 3.38923,0.42346 4.02374,0.74311 5.15375,2.59634 1.68836,2.76893 1.66357,4.90616 -0.0633,5.45424 -0.74629,0.23686 -5.3668,0.21816 -10.26778,-0.0415 -4.901,-0.25972 -9.9904,-0.26971 -11.30978,-0.0222 l -2.39886,0.45001 v 5.30312 5.30313 h 10.53925 c 11.6999,0 13.32753,0.45052 12.56751,3.47864 -0.23274,0.92735 -1.00009,2.39902 -1.7052,3.27039 -1.23032,1.52041 -1.68772,1.59349 -11.34179,1.81211 l -10.05977,0.22781 v 5.60553 5.60552 h 12.92868 c 14.36575,0 14.69732,0.11018 12.7406,4.23366 -1.75626,3.70104 -2.8246,3.97849 -16.00261,4.15588 -6.6,0.0888 -13.35,-0.0375 -15,-0.28067 z M 145.02896,416.89582 c 0,-21.33057 0.0871,-23.08802 1.16667,-23.52514 0.64166,-0.25983 6.71666,-0.47542 13.5,-0.47908 14.87268,-0.008 16.61217,0.53118 19.31481,5.9873 3.07872,6.21536 1.83842,16.41174 -2.49331,20.4972 -2.58381,2.43692 -6.03173,3.16753 -14.96825,3.17178 l -7.81342,0.004 -0.18658,8.5 -0.18659,8.5 -4.16666,0.19848 -4.16667,0.19848 z m 24.90471,-3.6193 c 1.16444,-1.16444 1.42862,-2.2221 1.42862,-5.71962 0,-6.2382 -0.53255,-6.60529 -10.01968,-6.90645 l -7.64698,-0.24275 v 7.4997 7.49969 l 7.4047,-0.35097 c 6.407,-0.30368 7.5972,-0.54346 8.83334,-1.7796 z m 159.08509,7.8069 c -0.005,-10.37584 -0.24188,-19.22973 -0.52504,-19.67532 -0.3426,-0.53915 -3.0712,-0.87368 -8.15646,-1 l -7.64163,-0.18983 -0.21511,-1.87643 c -0.1183,-1.03202 0.26361,-2.60702 0.8487,-3.5 l 1.06382,-1.62357 h 19.9133 c 21.42667,0 21.10159,-0.0551 20.24967,3.4357 -0.84504,3.46269 -1.88251,3.89763 -9.29704,3.89763 -3.79317,0 -6.9601,0.075 -7.03763,0.16667 -0.0775,0.0917 -0.30252,8.86667 -0.5,19.5 l -0.35904,19.33333 -4.16667,0.19848 -4.16667,0.19848 z m -143.74752,-1.52869 c -0.21677,-0.56489 -0.0139,-1.94493 0.45074,-3.06674 1.54591,-3.73217 2.58395,-3.98767 15.38126,-3.78586 11.09009,0.17489 11.60082,0.24173 11.78705,1.54267 0.10708,0.74792 -0.50454,2.39792 -1.35912,3.66666 l -1.5538,2.30681 -12.156,0.18177 c -10.44447,0.15616 -12.2115,0.0371 -12.55013,-0.84531 z"
           id="path314"
           clip-path="url(#clipPath670)" />
        <path
           style="fill:#a0d2f2;stroke-width:0.666667"
           d="m 94.695631,450.27892 c -9.975565,-2.47181 -17.122352,-10.22112 -19.044325,-20.64989 -0.879567,-4.77256 -0.330054,-9.47785 1.704193,-14.59247 l 1.53062,-3.84836 -19.9614,-15.75198 c -11.294135,-8.91246 -19.827057,-16.10206 -19.652003,-16.55825 0.198423,-0.51708 -0.969254,-1.09241 -3.255568,-1.60407 -4.402678,-0.98528 -10.667028,-4.94985 -13.52716,-8.56107 -1.181967,-1.49235 -2.96923,-4.46413 -3.971696,-6.60396 -1.623031,-3.46446 -1.822667,-4.6573 -1.822667,-10.8906 0,-6.23329 0.199636,-7.42613 1.822667,-10.89059 1.002466,-2.13983 2.789729,-5.11161 3.971696,-6.60397 2.53002,-3.19441 9.12364,-7.6379 12.186337,-8.21247 l 2.154487,-0.40418 6.680447,-30.05014 6.680447,-30.05013 -1.604958,-3.50569 c -2.373641,-5.18472 -3.185517,-10.7507 -2.302145,-15.78283 2.952952,-16.82148 19.116463,-26.46781 34.045363,-20.31817 2.36556,0.97444 4.357233,1.70717 4.425953,1.62827 0.06872,-0.0789 10.026012,-14.29092 22.127301,-31.58231 l 22.00236,-31.43887 -1.59977,-3.23255 c -6.12335,-12.37304 -1.06944,-28.40155 10.86152,-34.44743 9.00832,-4.56487 19.12033,-3.55671 27.3769,2.72944 3.02427,2.30254 7.20516,8.80686 8.22918,12.80237 l 0.86121,3.36028 29.53006,15.33282 c 16.24154,8.43305 29.81093,15.33282 30.1542,15.33282 0.34328,0 0.82231,-0.90224 1.06451,-2.00499 0.60212,-2.74142 5.19975,-9.48211 7.83697,-11.48997 6.03915,-4.59792 13.34883,-6.49971 19.97305,-5.19647 10.86705,2.13796 18.5404,9.95339 20.56654,20.94734 0.88068,4.77863 0.32974,9.47875 -1.71311,14.61453 l -1.53953,3.87044 24.01497,16.01917 24.01498,16.01916 4.08918,-1.8896 c 3.5845,-1.6564 4.87258,-1.88961 10.43654,-1.88961 5.82601,0 6.71224,0.17963 10.78988,2.18705 5.20014,2.56002 9.582,7.07155 12.32022,12.68481 1.66529,3.41379 1.85116,4.49765 1.85116,10.79481 0,6.29716 -0.18587,7.38102 -1.85116,10.7948 -2.73822,5.61326 -7.12008,10.1248 -12.32022,12.68482 -4.07764,2.00741 -4.96387,2.18704 -10.78988,2.18704 -5.4443,0 -6.87334,-0.24671 -10.04444,-1.73407 -6.30001,-2.95495 -11.18283,-8.17973 -13.71304,-14.67343 -0.62702,-1.60921 -1.22933,-3.03892 -1.33847,-3.17712 -0.1925,-0.24378 -42.98871,11.23138 -43.5124,11.6672 -0.24844,0.20674 8.36715,56.06708 8.99726,58.33493 0.16602,0.59755 2.0773,1.73177 4.25829,2.52699 10.81512,3.94339 18.14954,17.11761 16.08314,28.88884 -2.3002,13.10308 -12.3411,22.05109 -24.74436,22.05109 -8.59786,0 -16.12875,-4.16957 -20.78124,-11.50579 -1.77068,-2.79208 -1.88543,-2.86236 -1.88543,-1.1549 0,0.99996 -0.42037,1.97942 -0.93416,2.17658 -0.51379,0.19716 -16.37969,-1.16226 -35.25756,-3.02092 -18.87787,-1.85867 -34.7008,-3.3794 -35.16206,-3.3794 -0.6338,0 -0.7451,-1.2372 -0.45564,-5.06458 0.21068,-2.78552 0.47898,-5.14124 0.59623,-5.23491 0.11726,-0.0937 14.61319,1.27243 32.21319,3.03579 17.6,1.76335 33.05,3.21904 34.33334,3.23486 l 2.33333,0.0287 0.0568,-5.49996 c 0.0447,-4.32469 0.43644,-6.4371 1.83333,-9.88559 0.97708,-2.4121 1.7765,-4.52838 1.7765,-4.70284 0,-0.17446 -9.2687,-9.37033 -20.59712,-20.43526 l -20.59712,-20.11807 -4.17698,2.15423 c -3.85439,1.98787 -4.6707,2.1542 -10.56955,2.15374 -5.16147,-4e-4 -6.9988,-0.28046 -9.54053,-1.45424 l -3.14796,-1.45374 -0.5956,2.12091 c -0.32757,1.1665 -2.91914,9.86333 -5.75903,19.32629 l -5.16344,17.20538 1.907,4.12795 c 1.71505,3.71245 1.907,4.83254 1.907,11.12795 0,6.4892 -0.15534,7.32793 -2.12875,11.49384 -2.62404,5.53938 -7.23333,10.27112 -12.54642,12.87975 -3.56637,1.75102 -4.6662,1.95974 -10.32632,1.95974 -5.54144,0 -6.79083,-0.22567 -9.97585,-1.80192 -2.00257,-0.99106 -3.69691,-1.74106 -3.7652,-1.66667 -0.31351,0.34151 -19.7007,31.42828 -20.30887,32.56466 -0.52332,0.97781 -0.29662,2.27517 0.94842,5.42777 2.14001,5.41881 2.70476,10.05352 1.81398,14.88692 -1.97376,10.70977 -9.55218,18.64186 -19.91047,20.83966 -4.30325,0.91306 -6.151749,0.87954 -10.467189,-0.18976 z m -5.12371,-48.33087 c 4.31549,-2.20161 10.18787,-3.02179 14.940639,-2.08674 2.28265,0.44909 5.25329,1.37923 6.60142,2.067 1.89473,0.96662 2.59831,1.06579 3.09943,0.43689 0.35655,-0.44748 5.21007,-8.12606 10.78559,-17.06352 l 10.13732,-16.24991 -1.72035,-3.83345 c -0.94619,-2.10839 -1.72034,-4.32093 -1.72034,-4.91675 0,-0.87778 -0.74764,-1.0833 -3.94099,-1.0833 -4.30632,0 -48.770594,-1.77944 -56.559014,-2.26346 -4.19178,-0.26051 -4.8342,-0.15235 -4.839847,0.81487 -0.01087,1.85681 -3.248333,8.21549 -5.71638,11.22741 -1.276953,1.55836 -3.906327,3.81078 -5.84305,5.00537 l -3.521314,2.17198 17.043631,13.48778 c 9.373993,7.41828 17.43058,13.50314 17.90352,13.52192 0.47294,0.0188 1.98032,-0.53747 3.349735,-1.23609 z m 42.130219,-54.56311 c 0.003,-0.64167 0.73194,-2.72475 1.61857,-4.62907 l 1.61207,-3.4624 -21.13769,-28.5376 C 102.16936,295.06019 90.944711,279.9012 88.851441,277.06922 l -3.805968,-5.14906 -2.185654,1.28957 c -5.864,3.45984 -13.70006,3.98604 -20.557433,1.38044 -2.960667,-1.12496 -3.257187,-1.13602 -3.561734,-0.13284 -0.500427,1.64839 -11.046091,49.34681 -11.038085,49.92567 0.0038,0.27607 1.851685,1.36052 4.106372,2.4099 2.267393,1.05529 5.552833,3.36136 7.35162,5.16015 3.1298,3.1298 7.200113,10.34504 7.201207,12.76522 4.26e-4,0.93894 0.61866,1.17829 3.167193,1.2262 1.741667,0.0327 14.716667,0.59056 28.833332,1.23959 35.090499,1.61332 33.332019,1.60273 33.339849,0.20088 z m 14.50125,-17.94788 c 5.16189,-2.52547 12.26227,-2.8878 18.07005,-0.92211 2.33447,0.79012 4.32575,1.3466 4.42508,1.23662 0.0993,-0.10998 2.75951,-8.79922 5.9115,-19.30942 l 5.73089,-19.10944 -1.82264,-3.89056 c -1.623,-3.4644 -1.82264,-4.65727 -1.82264,-10.89054 0,-6.17615 0.20748,-7.44253 1.76287,-10.75999 l 1.76287,-3.75999 -13.26178,-32.90668 c -23.33866,-57.91063 -21.87592,-54.53672 -23.84916,-55.00995 -0.96148,-0.23059 -2.85262,-0.97231 -4.20254,-1.64827 l -2.45439,-1.22902 -21.2843,30.49028 c -11.70637,16.76966 -21.667619,31.11494 -22.136109,31.87842 -0.72862,1.1874 -0.58072,2.05505 1.02276,6 2.62667,6.4622 2.66336,14.04061 0.0982,20.27853 l -1.78197,4.33333 1.44915,2 c 9.200399,12.69762 48.148059,65 48.403119,65 0.18612,0 1.9767,-0.80154 3.97906,-1.78121 z m 122.81268,0.30644 c 2.02376,-0.81112 3.77796,-1.53452 3.89822,-1.60755 0.25477,-0.15471 -8.60117,-56.46127 -8.9392,-56.83587 -0.55191,-0.61165 -36.54402,9.72191 -36.98332,10.61815 -0.26062,0.53169 -1.16418,2.75595 -2.00792,4.9428 l -1.53404,3.9761 20.6229,20.17667 c 11.3426,11.09717 20.76712,20.18293 20.94336,20.19057 0.17625,0.008 1.97625,-0.64974 4,-1.46087 z m -23.98711,-64.90682 c 8.98333,-2.43323 16.54369,-4.61813 16.80078,-4.85535 0.2571,-0.2372 -1.31464,-11.68094 -3.49275,-25.4305 -2.17811,-13.74958 -3.96346,-25.36851 -3.96745,-25.81985 -0.004,-0.45135 -0.83225,-1.01892 -1.84058,-1.26127 -2.4655,-0.59257 -6.686,-2.74453 -9.3286,-4.75647 -3.01455,-2.29514 -7.20404,-8.80249 -8.22052,-12.76858 -0.46891,-1.82958 -1.08858,-3.18062 -1.37706,-3.00234 -0.28848,0.1783 -13.7969,-6.56958 -30.01872,-14.99527 l -29.49421,-15.31944 -1.90716,3.97364 c -2.45912,5.12364 -7.2912,9.93284 -12.05172,11.99465 -2.06026,0.89231 -3.75104,1.85102 -3.7573,2.13047 -0.008,0.37441 31.14407,78.16088 31.62263,78.9605 0.0445,0.0744 1.71942,-0.67561 3.72199,-1.66667 3.18502,-1.57625 4.4344,-1.80193 9.97584,-1.80193 5.6546,0 6.76435,0.21012 10.33483,1.95674 5.39601,2.63965 10.29988,7.77035 12.7062,13.2939 1.38145,3.17102 2.20888,4.32497 2.94132,4.10203 0.56053,-0.17061 8.36915,-2.30103 17.35248,-4.73426 z m 51.83334,-14.0886 c 16.06346,-4.37102 21.50527,-6.10483 21.52084,-6.85675 0.0115,-0.55352 0.72873,-2.45116 1.59392,-4.217 l 1.57306,-3.21061 -24.06278,-16.05105 c -23.69074,-15.80288 -24.09419,-16.03818 -26.09392,-15.21826 -1.11712,0.45804 -3.08113,1.22513 -4.36446,1.70465 -1.62754,0.60813 -2.28701,1.242 -2.18018,2.09554 0.31025,2.47883 6.90516,44.62042 7.26927,46.45077 0.30676,1.54207 0.643,1.82499 1.81048,1.52342 0.78857,-0.2037 11.10876,-3.00302 22.93377,-6.22071 z m -46.16693,188.87958 c -1.10014,-0.47946 -2.40407,-1.35832 -2.89762,-1.953 -0.49354,-0.59468 -4.2698,-9.11566 -8.39169,-18.93548 -5.10252,-12.15607 -7.84797,-17.92304 -8.60239,-18.06979 -1.01164,-0.1968 -1.10804,1.40381 -1.10804,18.39667 0,21.0711 0.0623,20.81888 -5.14141,20.81888 -2.23965,0 -2.77201,-0.25718 -3.10507,-1.5 -0.6117,-2.28258 -0.44062,-36.42702 0.19912,-39.73842 0.77862,-4.03034 2.39844,-5.42321 6.83992,-5.88161 4.0816,-0.42126 7.77908,0.50672 9.47184,2.37719 0.60076,0.66383 4.47426,9.27578 8.60779,19.13767 5.25373,12.53453 7.85843,17.99675 8.65499,18.15015 1.05268,0.20273 1.13948,-1.18427 1.13948,-18.2066 0,-11.42664 0.26216,-18.91588 0.69012,-19.71554 0.90916,-1.69878 6.93838,-1.88589 7.57189,-0.23498 0.78644,2.04942 0.3706,39.15799 -0.4663,41.61214 -1.39251,4.0834 -8.28454,5.99944 -13.46263,3.74272 z m -105.19288,-0.15808 c -0.78969,-0.78969 -0.5714,-45.44547 0.22456,-45.9374 0.38395,-0.23729 6.30895,-0.46348 13.16666,-0.50263 11.27498,-0.0644 12.76227,0.0611 15.53648,1.31092 4.57687,2.06192 6.14042,5.65245 5.83128,13.39096 -0.34694,8.68453 -2.93611,12.78689 -8.95077,14.18186 -1.43829,0.33357 -5.98111,0.61366 -10.09515,0.62241 l -7.48009,0.0159 -0.18658,8.5 -0.18659,8.5 -3.69313,0.19576 c -2.03123,0.10766 -3.90623,-0.0173 -4.16667,-0.27778 z m 24.29854,-26.05875 c 2.15057,-2.15301 2.55743,-8.55895 0.6902,-10.86725 -1.26715,-1.56649 -1.77101,-1.67109 -9.06865,-1.88268 l -7.72695,-0.22404 v 7.44969 7.44969 l 7.31648,-0.22565 c 6.49244,-0.20024 7.48232,-0.39168 8.78892,-1.69976 z m 107.36126,25.67411 c -1.0848,-1.08481 -1.15408,-44.90248 -0.072,-45.57122 1.38184,-0.85402 28.82837,-0.69206 30.34728,0.17907 1.92141,1.10199 3.36561,4.67762 2.46553,6.10431 -0.59298,0.9399 -2.30837,1.08784 -12.61354,1.08784 h -11.92727 l -0.19262,5.83333 -0.19262,5.83333 H 296.297 c 7.23335,0 11.47714,0.25436 11.75538,0.70456 0.65679,1.0627 -0.13562,3.47334 -1.69026,5.14204 -1.31381,1.41022 -1.8997,1.48674 -11.38414,1.48674 h -9.99905 l 0.19168,6.16666 0.19168,6.16667 h 12.33334 c 6.78333,0 12.69041,0.23163 13.12685,0.51473 1.15528,0.74941 -0.18779,4.17423 -2.28337,5.82262 -1.57015,1.23507 -2.71396,1.32932 -16.13339,1.32932 -10.34489,0 -14.67044,-0.22702 -15.24343,-0.8 z m 52.1943,1.7e-4 c -0.1776,-0.47676 -0.39897,-9.26684 -0.49193,-19.53351 l -0.16903,-18.66666 -8,-0.33334 c -7.59501,-0.31646 -8.01049,-0.40698 -8.20712,-1.78821 -0.11392,-0.80018 0.26879,-2.37518 0.85045,-3.5 l 1.05758,-2.04512 h 19.98288 19.98288 v 2.20591 c 0,4.1706 -1.03817,4.75487 -9.11068,5.12742 l -7.22266,0.33334 -0.33333,19.33333 -0.33333,19.33333 -3.8414,0.20018 c -2.69211,0.14028 -3.93801,-0.0592 -4.16431,-0.66667 z M 185.26545,419.53963 c -0.53631,-1.3976 0.99145,-4.8386 2.67039,-6.01458 2.02147,-1.41589 23.22541,-1.42062 24.3999,-0.005 0.95043,1.14519 0.48373,2.93764 -1.38265,5.31035 l -1.35424,1.72153 h -11.97253 c -10.09023,0 -12.03359,-0.1591 -12.36087,-1.01197 z"
           id="path312"
           clip-path="url(#clipPath666)" />
        <path
           style="fill:#7bc2ee;stroke-width:0.666667"
           d="m 94.695631,450.27892 c -9.975565,-2.47181 -17.122352,-10.22112 -19.044325,-20.64989 -0.879567,-4.77256 -0.330054,-9.47785 1.704193,-14.59247 l 1.53062,-3.84836 -19.9614,-15.75198 c -11.977891,-9.45202 -19.83179,-16.08973 -19.63734,-16.59646 0.34032,-0.88686 -0.93307,-1.62113 -2.812945,-1.62202 -2.362257,-10e-4 -9.25503,-3.99499 -12.235684,-7.08972 -10.249468,-10.64173 -10.249468,-27.17777 0,-37.81949 2.74744,-2.85259 9.824346,-7.08826 11.84544,-7.08973 0.408526,-3e-4 3.627201,-13.06923 7.414707,-30.10627 l 6.692809,-30.10574 -1.604958,-3.50569 c -2.373641,-5.18472 -3.185517,-10.7507 -2.302145,-15.78283 2.952952,-16.82148 19.116463,-26.46781 34.045363,-20.31817 2.36556,0.97444 4.357233,1.70717 4.425953,1.62827 0.06872,-0.0789 10.026012,-14.29092 22.127301,-31.58231 l 22.00236,-31.43887 -1.59977,-3.23255 c -6.12335,-12.37304 -1.06944,-28.40155 10.86152,-34.44743 9.00832,-4.56487 19.12033,-3.55671 27.3769,2.72944 3.02427,2.30254 7.20516,8.80686 8.22918,12.80237 l 0.86121,3.36028 29.53006,15.33282 c 16.24154,8.43305 29.81093,15.33282 30.1542,15.33282 0.34328,0 0.82231,-0.90224 1.06451,-2.00499 0.60212,-2.74142 5.19975,-9.48211 7.83697,-11.48997 6.03915,-4.59792 13.34883,-6.49971 19.97305,-5.19647 10.86705,2.13796 18.5404,9.95339 20.56654,20.94734 0.88068,4.77863 0.32974,9.47875 -1.71311,14.61453 l -1.53953,3.87044 23.93061,15.96289 c 13.16184,8.7796 24.19746,15.9629 24.5236,15.9629 0.32614,0 2.35424,-0.81851 4.50688,-1.8189 3.28822,-1.52813 4.81978,-1.82004 9.58056,-1.82605 4.9839,-0.006 6.2049,0.24695 10.13381,2.10183 8.01959,3.78612 12.98846,10.38823 14.68523,19.51217 2.04752,11.00993 -4.11688,22.58465 -14.68523,27.57407 -3.9223,1.85175 -5.15829,2.10898 -10.13381,2.10898 -4.97552,0 -6.2115,-0.25723 -10.1338,-2.10898 -2.47828,-1.17002 -5.84113,-3.48297 -7.55322,-5.19506 -2.68972,-2.68972 -3.8229,-4.62074 -6.71082,-11.43573 -0.59438,-1.40265 -0.88096,-1.34486 -22.18714,4.47387 -11.87175,3.24218 -21.73919,6.04908 -21.92767,6.23756 -0.30178,0.30178 8.14456,55.6854 8.91558,58.46041 0.16602,0.59755 2.0773,1.73177 4.25829,2.52699 10.81512,3.94339 18.14954,17.11761 16.08314,28.88884 -2.3002,13.10308 -12.3411,22.05109 -24.74436,22.05109 -8.59786,0 -16.12875,-4.16957 -20.78124,-11.50579 -1.77068,-2.79208 -1.88543,-2.86236 -1.88543,-1.1549 0,0.99996 -0.42037,1.97942 -0.93416,2.17658 -0.51379,0.19716 -16.37969,-1.16226 -35.25756,-3.02092 -18.87787,-1.85867 -34.7008,-3.3794 -35.16206,-3.3794 -0.6338,0 -0.7451,-1.2372 -0.45564,-5.06458 0.21068,-2.78552 0.47898,-5.14124 0.59623,-5.23491 0.11726,-0.0937 14.61319,1.27243 32.21319,3.03579 17.6,1.76335 33.05,3.21904 34.33334,3.23486 l 2.33333,0.0287 0.0568,-5.49996 c 0.0447,-4.32469 0.43644,-6.4371 1.83333,-9.88559 0.97708,-2.4121 1.7765,-4.52838 1.7765,-4.70284 0,-0.17446 -9.2718,-9.37336 -20.604,-20.44199 l -20.60401,-20.12479 -4.56266,2.15368 c -4.04134,1.9076 -5.21012,2.15179 -10.22933,2.13716 -4.41012,-0.0129 -6.39169,-0.34564 -8.93636,-1.5008 -1.79832,-0.81636 -3.44224,-1.31173 -3.65315,-1.10082 -0.21091,0.2109 -2.98009,8.95849 -6.15375,19.43908 l -5.77027,19.05562 1.54364,3.07332 c 6.66359,13.26691 0.74089,30.38565 -12.62705,36.49673 -3.43101,1.56846 -4.95906,1.86138 -9.73639,1.86643 -4.78506,0.005 -6.27884,-0.27849 -9.60152,-1.82251 -2.16417,-1.00567 -4.00917,-1.74918 -4.10002,-1.65223 -0.33184,0.35412 -19.68297,31.35955 -20.34987,32.60566 -0.52332,0.97781 -0.29662,2.27517 0.94842,5.42777 2.14001,5.41881 2.70476,10.05352 1.81398,14.88692 -1.97376,10.70977 -9.55218,18.64186 -19.91047,20.83966 -4.30325,0.91306 -6.151749,0.87954 -10.467189,-0.18976 z m -5.12371,-48.33087 c 4.31549,-2.20161 10.18787,-3.02179 14.940639,-2.08674 2.28265,0.44909 5.25329,1.37923 6.60142,2.067 1.89473,0.96662 2.59831,1.06579 3.09943,0.43689 2.08144,-2.61224 20.81555,-33.30689 20.81555,-34.10497 0,-0.5298 -0.25593,-1.12144 -0.56875,-1.31477 -0.31281,-0.19333 -1.09073,-2.01103 -1.72871,-4.03935 -0.79321,-2.52182 -1.50923,-3.68794 -2.26459,-3.68814 -0.60754,-1.7e-4 -15.18369,-0.60538 -32.391449,-1.34492 -32.521942,-1.39768 -32.339642,-1.40472 -32.369629,1.2484 -0.0418,3.69681 -7.37022,13.01166 -12.203244,15.51101 l -2.526371,1.30648 17.193035,13.60553 c 9.456174,7.48304 17.579994,13.62089 18.052934,13.63967 0.47294,0.0188 1.98032,-0.53747 3.349735,-1.23609 z m 43.110529,-56.89644 c 0.62716,-1.925 1.43752,-3.86186 1.80079,-4.30414 0.36328,-0.44226 0.42728,-1.19226 0.14222,-1.66666 -0.44511,-0.74076 -7.52651,-10.33406 -44.050489,-59.67605 l -5.536992,-7.48017 -2.181906,1.28735 c -5.860261,3.45764 -13.697981,3.9832 -20.553687,1.37823 -2.960667,-1.12496 -3.257187,-1.13602 -3.561734,-0.13284 -0.550193,1.8123 -11.045027,49.37385 -11.045027,50.05495 0,0.34717 1.756373,1.41944 3.90305,2.38281 4.694517,2.10677 9.989357,7.27288 12.387857,12.08667 0.94,1.88658 1.713687,3.83658 1.7193,4.33333 0.03047,2.69563 0.35136,2.742 27.093819,3.91539 14.242779,0.62493 28.786439,1.17784 32.319239,1.22869 l 6.42326,0.0924 z m 14.09928,-15.65224 c 5.25802,-2.44355 13.51948,-2.58448 18.51692,-0.31588 1.79833,0.81636 3.34044,1.40565 3.4269,1.30954 0.0865,-0.0961 2.78074,-8.93358 5.98728,-19.63882 l 5.83008,-19.46406 -1.39422,-2.9661 c -0.76683,-1.63134 -1.75932,-4.94752 -2.20555,-7.36926 -0.97507,-5.29192 -0.0504,-11.61097 2.41815,-16.5258 0.865,-1.72219 1.30325,-3.22413 0.97388,-3.33765 -0.32936,-0.11352 -8.287,-19.2564 -17.68364,-42.53973 -9.39664,-23.28333 -17.23888,-42.71092 -17.42722,-43.17242 -0.18833,-0.4615 -1.13433,-1.02907 -2.10222,-1.26127 -0.96789,-0.23219 -2.86428,-0.97523 -4.2142,-1.65119 l -2.45439,-1.22902 -21.2843,30.49028 c -11.70637,16.76966 -21.667619,31.11494 -22.136109,31.87842 -0.72862,1.1874 -0.58072,2.05505 1.02276,6 2.62667,6.4622 2.66336,14.04061 0.0982,20.27853 l -1.78197,4.33333 1.44915,2 c 11.826959,16.32257 48.189499,65 48.555669,65 0.27003,0 2.25221,-0.8185 4.40485,-1.8189 z m 122.23434,0.34413 c 2.02376,-0.81112 3.7785,-1.53506 3.89942,-1.60875 0.12092,-0.0737 -1.75408,-12.56435 -4.16667,-27.75702 -2.41259,-15.19268 -4.38653,-27.96874 -4.38653,-28.39126 0,-1.25622 -1.53762,-0.94096 -19.93601,4.08749 l -17.60269,4.81098 -1.29265,4 c -0.71096,2.2 -1.57249,4.34007 -1.91452,4.75571 -0.42702,0.51892 5.91118,7.14656 20.22867,21.15242 11.4678,11.2182 20.99474,20.40313 21.17098,20.41096 0.17625,0.008 1.97625,-0.6494 4,-1.46053 z m -24.33005,-64.58559 c 9.53861,-2.59988 17.42241,-4.80435 17.51954,-4.89883 0.0971,-0.0945 -1.62787,-11.58519 -3.83333,-25.53489 -2.20546,-13.94971 -4.00994,-25.68952 -4.00994,-26.08847 0,-0.39896 -0.825,-0.92366 -1.83333,-1.16601 -2.4655,-0.59257 -6.686,-2.74453 -9.3286,-4.75647 -3.01455,-2.29514 -7.20404,-8.80249 -8.22052,-12.76858 -0.46891,-1.82958 -1.08858,-3.18062 -1.37706,-3.00234 -0.28848,0.1783 -13.7969,-6.56958 -30.01872,-14.99527 l -29.49421,-15.31944 -1.90716,3.97364 c -2.45912,5.12364 -7.2912,9.93284 -12.05172,11.99465 -2.06026,0.89231 -3.75104,1.85102 -3.7573,2.13047 -0.009,0.41189 31.24932,78.40268 31.66364,79.0015 0.0671,0.0969 1.89263,-0.64656 4.0568,-1.65224 3.31083,-1.53851 4.83352,-1.82962 9.60152,-1.83564 4.96875,-0.006 6.20036,0.24736 10,2.05932 2.4081,1.14838 5.66618,3.43316 7.33333,5.14264 3.06475,3.14255 6.62635,9.17987 6.65225,11.27632 0.008,0.64167 0.38509,1.16667 0.83814,1.16667 0.45305,0 8.62805,-2.12717 18.16667,-4.72703 z m 51.26286,-13.91642 c 12.05596,-3.28578 21.99507,-6.0602 22.08692,-6.16536 0.0918,-0.10515 0.92476,-2.08289 1.85091,-4.39496 l 1.68391,-4.20378 -24.07304,-16.05789 c -23.70093,-15.80968 -24.10443,-16.04502 -26.10416,-15.22509 -1.11712,0.45804 -3.08113,1.22513 -4.36446,1.70465 -1.62754,0.60813 -2.28701,1.242 -2.18018,2.09554 0.30109,2.40562 6.89973,44.59329 7.256,46.39034 0.1999,1.00833 0.71462,1.83275 1.14382,1.83203 0.42919,-6.7e-4 10.64432,-2.68968 22.70028,-5.97548 z m -45.25351,188.38617 c -1.10014,-0.47946 -2.40407,-1.35832 -2.89762,-1.953 -0.49354,-0.59468 -4.2698,-9.11566 -8.39169,-18.93548 -5.10252,-12.15607 -7.84797,-17.92304 -8.60239,-18.06979 -1.01164,-0.1968 -1.10804,1.40381 -1.10804,18.39667 0,21.0711 0.0623,20.81888 -5.14141,20.81888 -2.23965,0 -2.77201,-0.25718 -3.10507,-1.5 -0.6117,-2.28258 -0.44062,-36.42702 0.19912,-39.73842 0.77862,-4.03034 2.39844,-5.42321 6.83992,-5.88161 4.0816,-0.42126 7.77908,0.50672 9.47184,2.37719 0.60076,0.66383 4.47426,9.27578 8.60779,19.13767 5.25373,12.53453 7.85843,17.99675 8.65499,18.15015 1.05268,0.20273 1.13948,-1.18427 1.13948,-18.2066 0,-11.42664 0.26216,-18.91588 0.69012,-19.71554 0.90916,-1.69878 6.93838,-1.88589 7.57189,-0.23498 0.78644,2.04942 0.3706,39.15799 -0.4663,41.61214 -1.39251,4.0834 -8.28454,5.99944 -13.46263,3.74272 z m -105.19288,-0.15808 c -0.78969,-0.78969 -0.5714,-45.44547 0.22456,-45.9374 0.38395,-0.23729 6.30895,-0.46348 13.16666,-0.50263 11.27498,-0.0644 12.76227,0.0611 15.53648,1.31092 4.57687,2.06192 6.14042,5.65245 5.83128,13.39096 -0.34694,8.68453 -2.93611,12.78689 -8.95077,14.18186 -1.43829,0.33357 -5.98111,0.61366 -10.09515,0.62241 l -7.48009,0.0159 -0.18658,8.5 -0.18659,8.5 -3.69313,0.19576 c -2.03123,0.10766 -3.90623,-0.0173 -4.16667,-0.27778 z m 24.29854,-26.05875 c 2.15057,-2.15301 2.55743,-8.55895 0.6902,-10.86725 -1.26715,-1.56649 -1.77101,-1.67109 -9.06865,-1.88268 l -7.72695,-0.22404 v 7.44969 7.44969 l 7.31648,-0.22565 c 6.49244,-0.20024 7.48232,-0.39168 8.78892,-1.69976 z m 107.36126,25.67411 c -1.0848,-1.08481 -1.15408,-44.90248 -0.072,-45.57122 1.38184,-0.85402 28.82837,-0.69206 30.34728,0.17907 1.92141,1.10199 3.36561,4.67762 2.46553,6.10431 -0.59298,0.9399 -2.30837,1.08784 -12.61354,1.08784 h -11.92727 l -0.19262,5.83333 -0.19262,5.83333 H 296.297 c 7.23335,0 11.47714,0.25436 11.75538,0.70456 0.65679,1.0627 -0.13562,3.47334 -1.69026,5.14204 -1.31381,1.41022 -1.8997,1.48674 -11.38414,1.48674 h -9.99905 l 0.19168,6.16666 0.19168,6.16667 h 12.33334 c 6.78333,0 12.69041,0.23163 13.12685,0.51473 1.15528,0.74941 -0.18779,4.17423 -2.28337,5.82262 -1.57015,1.23507 -2.71396,1.32932 -16.13339,1.32932 -10.34489,0 -14.67044,-0.22702 -15.24343,-0.8 z m 52.1943,1.7e-4 c -0.1776,-0.47676 -0.39897,-9.26684 -0.49193,-19.53351 l -0.16903,-18.66666 -8,-0.33334 c -7.59501,-0.31646 -8.01049,-0.40698 -8.20712,-1.78821 -0.11392,-0.80018 0.26879,-2.37518 0.85045,-3.5 l 1.05758,-2.04512 h 19.98288 19.98288 v 2.20591 c 0,4.1706 -1.03817,4.75487 -9.11068,5.12742 l -7.22266,0.33334 -0.33333,19.33333 -0.33333,19.33333 -3.8414,0.20018 c -2.69211,0.14028 -3.93801,-0.0592 -4.16431,-0.66667 z M 185.26545,419.53963 c -0.53631,-1.3976 0.99145,-4.8386 2.67039,-6.01458 2.02147,-1.41589 23.22541,-1.42062 24.3999,-0.005 0.95043,1.14519 0.48373,2.93764 -1.38265,5.31035 l -1.35424,1.72153 h -11.97253 c -10.09023,0 -12.03359,-0.1591 -12.36087,-1.01197 z"
           id="path310"
           clip-path="url(#clipPath662)" />
        <path
           style="fill:#a5a5a5;stroke-width:0.666667"
           d="m 94.695631,450.27892 c -9.975565,-2.47181 -17.122352,-10.22112 -19.044325,-20.64989 -0.879567,-4.77256 -0.330054,-9.47785 1.704193,-14.59247 l 1.53062,-3.84836 -19.945607,-15.73952 C 42.772843,382.69041 39.069773,379.47325 39.390188,378.46371 c 0.314885,-0.99211 0.05223,-1.24544 -1.291296,-1.24544 -3.324986,0 -9.047406,-2.74428 -12.718298,-6.09926 -6.529263,-5.96738 -9.785016,-15.32068 -8.376754,-24.06518 1.48821,-9.24095 8.008238,-17.63264 15.949655,-20.52822 l 3.876153,-1.41332 6.681029,-30.05275 6.681029,-30.05275 -1.604958,-3.50569 c -2.373641,-5.18472 -3.185517,-10.7507 -2.302145,-15.78283 2.952952,-16.82148 19.116463,-26.46781 34.045363,-20.31817 2.36556,0.97444 4.357233,1.70717 4.425953,1.62827 0.06872,-0.0789 10.026012,-14.29092 22.127301,-31.58231 l 22.00236,-31.43887 -1.59977,-3.23255 c -6.12335,-12.37304 -1.06944,-28.40155 10.86152,-34.44743 9.00832,-4.56487 19.12033,-3.55671 27.3769,2.72944 3.02427,2.30254 7.20516,8.80686 8.22918,12.80237 l 0.86121,3.36028 29.53006,15.33282 c 16.24154,8.43305 29.81093,15.33282 30.1542,15.33282 0.34328,0 0.82231,-0.90224 1.06451,-2.00499 0.60212,-2.74142 5.19975,-9.48211 7.83697,-11.48997 6.03915,-4.59792 13.34883,-6.49971 19.97305,-5.19647 10.86705,2.13796 18.5404,9.95339 20.56654,20.94734 0.88075,4.77903 0.32971,9.47881 -1.71369,14.61597 l -1.54011,3.87188 24.2785,16.18933 24.2785,16.18934 3.15957,-1.55786 c 9.4182,-4.64372 19.92251,-2.98063 27.71346,4.38773 10.94856,10.35469 10.79886,27.40535 -0.33106,37.70969 -5.00883,4.63729 -9.78665,6.51838 -16.55616,6.51838 -6.7695,0 -11.54732,-1.88109 -16.55616,-6.51838 -3.60328,-3.33602 -7.44384,-9.48289 -7.44384,-11.91401 0,-0.55145 -0.23869,-1.15015 -0.53043,-1.33045 -0.29173,-0.1803 -10.4105,2.35199 -22.48615,5.62732 -12.07564,3.27534 -22.02753,5.95515 -22.11531,5.95515 -0.0878,0 -0.0221,0.375 0.14606,0.83333 0.1681,0.45834 2.26193,13.28334 4.65295,28.5 2.39102,15.21667 4.48925,28.29972 4.66273,29.07344 0.22558,1.00611 1.45084,1.82077 4.30193,2.86033 10.84572,3.95455 18.18176,17.11248 16.11258,28.89957 -2.3002,13.10308 -12.3411,22.05109 -24.74436,22.05109 -8.59786,0 -16.12875,-4.16957 -20.78124,-11.50579 -1.77068,-2.79208 -1.88543,-2.86236 -1.88543,-1.1549 0,0.99996 -0.42037,1.97942 -0.93416,2.17658 -0.51379,0.19716 -16.37969,-1.16226 -35.25756,-3.02092 -18.87787,-1.85867 -34.7008,-3.3794 -35.16206,-3.3794 -0.6338,0 -0.7451,-1.2372 -0.45564,-5.06458 0.21068,-2.78552 0.47898,-5.14124 0.59623,-5.23491 0.11726,-0.0937 14.61319,1.27243 32.21319,3.03579 17.6,1.76335 33.05,3.21904 34.33334,3.23486 l 2.33333,0.0287 0.0568,-5.49996 c 0.0447,-4.32469 0.43644,-6.4371 1.83333,-9.88559 0.97708,-2.4121 1.7765,-4.52838 1.7765,-4.70284 0,-0.17446 -9.29801,-9.39896 -20.66225,-20.49888 l -20.66226,-20.18169 -3.50441,1.70853 c -6.85496,3.34206 -13.05626,3.61842 -20.38374,0.90842 -1.9503,-0.7213 -3.62281,-1.20716 -3.71668,-1.07968 -0.0939,0.12748 -2.66937,8.63178 -5.72332,18.89844 -3.05396,10.26667 -5.75192,18.74849 -5.99548,18.8485 -0.24356,0.1 0.40793,1.9 1.44774,4 5.36385,10.83272 2.9701,24.0205 -5.8179,32.05224 -7.03336,6.42809 -16.782,8.16547 -25.61604,4.56523 -2.36556,-0.96406 -4.36056,-1.6883 -4.43336,-1.6094 -0.31661,0.34314 -19.69711,31.41447 -20.31704,32.57283 -0.52332,0.97781 -0.29662,2.27517 0.94842,5.42777 2.14001,5.41881 2.70476,10.05352 1.81398,14.88692 -1.97376,10.70977 -9.55218,18.64186 -19.91047,20.83966 -4.30325,0.91306 -6.151749,0.87954 -10.467189,-0.18976 z m -5.12371,-48.33087 c 4.31549,-2.20161 10.18787,-3.02179 14.940639,-2.08674 2.28265,0.44909 5.25329,1.37923 6.60142,2.067 1.89473,0.96662 2.59831,1.06579 3.09943,0.43689 1.24458,-1.56196 20.81555,-33.14548 20.81555,-33.59201 0,-0.48258 -3.35254,-9.07505 -3.68316,-9.43985 -0.20548,-0.22672 -56.280941,-2.73773 -61.765141,-2.76579 -3.01604,-0.0154 -3.140647,0.0635 -3.923547,2.48406 -2.085713,6.44863 -6.512233,12.20378 -11.745149,15.27047 l -2.860355,1.67628 17.155344,13.57582 c 9.435434,7.4667 17.542294,13.59118 18.015234,13.60996 0.47294,0.0188 1.98032,-0.53747 3.349735,-1.23609 z m 43.525319,-57.56311 c 0.86915,-2.29167 1.55072,-4.49337 1.51462,-4.89268 -0.0361,-0.39931 -8.71335,-12.39931 -19.28278,-26.66667 -10.56942,-14.26736 -21.708769,-29.30673 -24.754109,-33.42083 l -5.536992,-7.48017 -2.181906,1.28735 c -5.860261,3.45764 -13.697981,3.9832 -20.553687,1.37823 -2.960667,-1.12496 -3.257187,-1.13602 -3.561734,-0.13284 -0.65706,2.16432 -11.045027,49.44305 -11.045027,50.26919 0,0.46501 1.45269,1.36141 3.228198,1.99201 3.403098,1.20868 8.418869,5.19535 10.873496,8.64256 0.804153,1.12933 2.26354,4.0342 3.243073,6.45526 l 1.780967,4.40192 24.270472,1.06944 c 13.348759,0.58818 27.905259,1.11318 32.347799,1.16666 l 8.07734,0.0972 z m 19.43172,-16.53043 c 4.18596,-0.76856 9.17655,-0.15232 13.54361,1.67235 1.37194,0.57324 2.58881,0.94788 2.70415,0.83255 0.39703,-0.39704 11.58557,-37.77822 11.58557,-38.70768 0,-0.51185 -0.61817,-2.32812 -1.37372,-4.03616 -3.2111,-7.25922 -3.0068,-15.98346 0.54213,-23.15093 1.02223,-2.0645 1.5205,-3.6239 1.10727,-3.46533 -0.45705,0.17539 -6.78018,-14.67352 -16.14456,-37.91303 -8.46628,-21.01074 -16.34786,-40.53031 -17.51462,-43.37683 -1.73444,-4.23147 -2.44014,-5.25194 -3.86894,-5.5946 -0.96116,-0.23051 -2.85204,-0.97216 -4.20196,-1.64812 l -2.45439,-1.22902 -21.2843,30.49028 c -11.70637,16.76966 -21.667619,31.11494 -22.136109,31.87842 -0.72862,1.1874 -0.58072,2.05505 1.02276,6 2.61465,6.43262 2.66152,14.03979 0.12461,20.22619 -0.96555,2.35455 -1.56223,4.60455 -1.32596,5 0.36846,0.61671 7.658949,10.48942 43.918519,59.47405 l 5.49372,7.4217 3.21444,-1.58501 c 1.76795,-0.87176 4.93945,-1.90173 7.04778,-2.28883 z m 116.48711,1.88899 c 2.02376,-0.81112 3.77574,-1.53231 3.8933,-1.60263 0.57402,-0.34338 -8.94668,-57.58052 -9.54234,-57.36726 -0.36928,0.13222 -8.8464,2.45789 -18.83807,5.16817 -13.53941,3.67262 -18.1707,5.18445 -18.18249,5.93547 -0.009,0.55423 -0.72677,2.73652 -1.5957,4.84953 l -1.57988,3.84183 20.76237,20.3106 c 11.4193,11.17082 20.90657,20.31699 21.08281,20.32482 0.17625,0.008 1.97625,-0.6494 4,-1.46053 z m -24.10354,-64.47849 c 9.28596,-2.52541 17.01544,-4.72352 17.1766,-4.88469 0.16117,-0.16117 -1.51144,-11.70643 -3.7169,-25.65613 -2.20546,-13.94971 -4.00994,-25.68952 -4.00994,-26.08847 0,-0.39896 -0.825,-0.92366 -1.83333,-1.16601 -2.4655,-0.59257 -6.686,-2.74453 -9.3286,-4.75647 -3.01455,-2.29514 -7.20404,-8.80249 -8.22052,-12.76858 -0.46891,-1.82958 -1.08858,-3.18062 -1.37706,-3.00234 -0.28848,0.1783 -13.7969,-6.56958 -30.01872,-14.99527 l -29.49421,-15.31944 -1.90716,3.97364 c -2.45912,5.12364 -7.2912,9.93284 -12.05172,11.99465 -2.06026,0.89231 -3.75104,1.85102 -3.7573,2.13047 -0.009,0.38186 31.17637,78.23734 31.63081,78.96867 0.049,0.0789 2.02458,-0.64534 4.39014,-1.60941 11.89745,-4.8487 25.46621,0.33347 31.26676,11.94139 1.11883,2.23899 2.03425,4.47297 2.03425,4.9644 0,0.49144 0.525,0.88716 1.16666,0.87938 0.64167,-0.008 8.76428,-2.08038 18.05024,-4.60579 z m 50.44977,-13.70958 c 11.73333,-3.14619 21.74054,-5.93983 22.23823,-6.20809 0.4977,-0.26826 1.35005,-1.83204 1.89412,-3.47507 0.54407,-1.64303 1.40304,-3.4178 1.90883,-3.94392 0.79178,-0.82361 -2.47926,-3.22301 -23.53145,-17.26098 -24.06918,-16.04976 -24.48276,-16.29141 -26.4804,-15.47229 -1.11614,0.45767 -3.07934,1.22446 -4.36267,1.70398 -1.62881,0.60861 -2.2866,1.24132 -2.17855,2.09554 0.0851,0.67302 1.81014,11.76741 3.83334,24.65419 2.0232,12.88678 3.67854,23.60237 3.67854,23.81241 0,0.21004 0.375,0.25425 0.83334,0.0982 0.45833,-0.15602 10.43333,-2.85782 22.16667,-6.004 z m -44.66693,188.07223 c -1.10014,-0.47946 -2.40407,-1.35832 -2.89762,-1.953 -0.49354,-0.59468 -4.2698,-9.11566 -8.39169,-18.93548 -5.10252,-12.15607 -7.84797,-17.92304 -8.60239,-18.06979 -1.01164,-0.1968 -1.10804,1.40381 -1.10804,18.39667 0,21.0711 0.0623,20.81888 -5.14141,20.81888 -2.23965,0 -2.77201,-0.25718 -3.10507,-1.5 -0.6117,-2.28258 -0.44062,-36.42702 0.19912,-39.73842 0.77862,-4.03034 2.39844,-5.42321 6.83992,-5.88161 4.0816,-0.42126 7.77908,0.50672 9.47184,2.37719 0.60076,0.66383 4.47426,9.27578 8.60779,19.13767 5.25373,12.53453 7.85843,17.99675 8.65499,18.15015 1.05268,0.20273 1.13948,-1.18427 1.13948,-18.2066 0,-11.42664 0.26216,-18.91588 0.69012,-19.71554 0.90916,-1.69878 6.93838,-1.88589 7.57189,-0.23498 0.78644,2.04942 0.3706,39.15799 -0.4663,41.61214 -1.39251,4.0834 -8.28454,5.99944 -13.46263,3.74272 z m -105.19288,-0.15808 c -0.78969,-0.78969 -0.5714,-45.44547 0.22456,-45.9374 0.38395,-0.23729 6.30895,-0.46348 13.16666,-0.50263 11.27498,-0.0644 12.76227,0.0611 15.53648,1.31092 4.57687,2.06192 6.14042,5.65245 5.83128,13.39096 -0.34694,8.68453 -2.93611,12.78689 -8.95077,14.18186 -1.43829,0.33357 -5.98111,0.61366 -10.09515,0.62241 l -7.48009,0.0159 -0.18658,8.5 -0.18659,8.5 -3.69313,0.19576 c -2.03123,0.10766 -3.90623,-0.0173 -4.16667,-0.27778 z m 24.29854,-26.05875 c 2.15057,-2.15301 2.55743,-8.55895 0.6902,-10.86725 -1.26715,-1.56649 -1.77101,-1.67109 -9.06865,-1.88268 l -7.72695,-0.22404 v 7.44969 7.44969 l 7.31648,-0.22565 c 6.49244,-0.20024 7.48232,-0.39168 8.78892,-1.69976 z m 107.36126,25.67411 c -1.0848,-1.08481 -1.15408,-44.90248 -0.072,-45.57122 1.38184,-0.85402 28.82837,-0.69206 30.34728,0.17907 1.92141,1.10199 3.36561,4.67762 2.46553,6.10431 -0.59298,0.9399 -2.30837,1.08784 -12.61354,1.08784 h -11.92727 l -0.19262,5.83333 -0.19262,5.83333 H 296.297 c 7.23335,0 11.47714,0.25436 11.75538,0.70456 0.65679,1.0627 -0.13562,3.47334 -1.69026,5.14204 -1.31381,1.41022 -1.8997,1.48674 -11.38414,1.48674 h -9.99905 l 0.19168,6.16666 0.19168,6.16667 h 12.33334 c 6.78333,0 12.69041,0.23163 13.12685,0.51473 1.15528,0.74941 -0.18779,4.17423 -2.28337,5.82262 -1.57015,1.23507 -2.71396,1.32932 -16.13339,1.32932 -10.34489,0 -14.67044,-0.22702 -15.24343,-0.8 z m 52.1943,1.7e-4 c -0.1776,-0.47676 -0.39897,-9.26684 -0.49193,-19.53351 l -0.16903,-18.66666 -8,-0.33334 c -7.59501,-0.31646 -8.01049,-0.40698 -8.20712,-1.78821 -0.11392,-0.80018 0.26879,-2.37518 0.85045,-3.5 l 1.05758,-2.04512 h 19.98288 19.98288 v 2.20591 c 0,4.1706 -1.03817,4.75487 -9.11068,5.12742 l -7.22266,0.33334 -0.33333,19.33333 -0.33333,19.33333 -3.8414,0.20018 c -2.69211,0.14028 -3.93801,-0.0592 -4.16431,-0.66667 z M 185.26545,419.53963 c -0.53631,-1.3976 0.99145,-4.8386 2.67039,-6.01458 2.02147,-1.41589 23.22541,-1.42062 24.3999,-0.005 0.95043,1.14519 0.48373,2.93764 -1.38265,5.31035 l -1.35424,1.72153 h -11.97253 c -10.09023,0 -12.03359,-0.1591 -12.36087,-1.01197 z"
           id="path308"
           clip-path="url(#clipPath658)" />
        <path
           style="fill:#00a08a;stroke-width:0.666667"
           d="m 251.69563,439.90395 c -1.28334,-0.31597 -2.93148,-1.36901 -3.66254,-2.3401 -0.73106,-0.97109 -4.49878,-9.33208 -8.37272,-18.57999 -7.9096,-18.88186 -7.68996,-18.43226 -9.00409,-18.43226 -0.81295,0 -0.96065,2.79602 -0.96065,18.185 0,21.03134 -0.0784,21.36805 -4.89585,21.01695 l -2.77082,-0.20195 -0.17617,-21.26918 c -0.19882,-24.00389 -0.23909,-23.78548 4.62698,-25.09578 2.83614,-0.7637 7.89108,-0.36734 10.05009,0.78803 1.56298,0.83641 3.27035,4.35329 10.14761,20.90223 6.90612,16.6184 7.42618,17.6747 8.70194,17.6747 0.84254,0 0.98288,-2.65074 0.98288,-18.56334 0,-17.39753 0.0796,-18.6354 1.26794,-19.71081 0.85346,-0.77236 2.10656,-1.07855 3.83334,-0.93665 l 2.56539,0.2108 0.18651,20.66667 c 0.10258,11.36667 0.0228,21.33787 -0.17725,22.15823 -0.20007,0.82036 -1.034,1.92743 -1.85318,2.46015 -1.90839,1.24104 -7.48083,1.80803 -10.48941,1.0673 z m -106.19314,-0.43437 c -0.26044,-0.26044 -0.47353,-10.41353 -0.47353,-22.56242 0,-16.29136 0.20997,-22.29886 0.8,-22.88889 0.99763,-0.99763 23.75831,-1.1204 27.15422,-0.14647 5.36422,1.53844 7.77841,6.52352 7.23791,14.94566 -0.23884,3.72153 -0.74386,5.65634 -2.06475,7.91026 -2.61248,4.45786 -4.99653,5.32743 -15.60811,5.69292 l -8.81406,0.30359 -0.18594,8.41369 -0.18594,8.41368 -3.69313,0.19576 c -2.03123,0.10766 -3.90623,-0.0173 -4.16667,-0.27778 z m 22.71984,-24.67848 c 2.11002,-0.56523 3.4733,-3.53648 3.4733,-7.57002 0,-2.71754 -0.32721,-3.72396 -1.63637,-5.03311 -1.53984,-1.53985 -2.07071,-1.63637 -9,-1.63637 h -7.36363 v 7.33334 7.33333 l 6.5,-0.009 c 3.575,-0.005 7.18701,-0.19314 8.0267,-0.41807 z m 108.93996,24.29384 c -1.14504,-1.14505 -1.14504,-43.92162 0,-45.06667 0.5729,-0.5729 4.8927,-0.8 15.21713,-0.8 14.28774,0 14.43039,0.0141 15.89502,1.57315 0.81284,0.86523 1.54014,2.44023 1.61621,3.5 l 0.13831,1.92685 -12.5,0.18138 -12.5,0.18137 v 5.96955 5.96955 l 11.49146,0.18241 c 12.8657,0.20422 13.17437,0.34003 10.33958,4.54931 l -1.54879,2.29976 -10.14112,0.18404 -10.14113,0.18402 v 6.38816 6.38816 l 12.83334,-0.23886 12.83333,-0.23885 0.21157,1.83972 c 0.15296,1.33021 -0.34057,2.39185 -1.78206,3.83333 l -1.99361,1.99362 h -14.58462 c -10.4547,0 -14.81115,-0.22654 -15.38462,-0.8 z m 52.34021,0.38464 c -0.26045,-0.26044 -0.47354,-9.12353 -0.47354,-19.69576 V 400.5516 l -7.5,-0.0102 c -4.125,-0.005 -7.90706,-0.26814 -8.40459,-0.58338 -1.17355,-0.7436 -0.45903,-4.20402 1.17303,-5.68101 1.05144,-0.95154 3.47728,-1.05853 20.46221,-0.90246 l 19.26935,0.17705 0.19604,2 c 0.38726,3.95086 -0.9002,4.64062 -9.13112,4.89206 l -7.3783,0.22538 -0.17664,19.44128 -0.17664,19.44128 -3.69314,0.19576 c -2.03122,0.10766 -3.90622,-0.0173 -4.16666,-0.27778 z M 185.27258,419.55822 c -0.59397,-1.54786 1.99917,-5.91624 3.81309,-6.4235 0.88548,-0.24761 6.12762,-0.48012 11.6492,-0.51666 11.36584,-0.0752 12.85852,0.36219 11.69338,3.42674 -0.37366,0.98279 -1.29136,2.39887 -2.03934,3.14685 -1.2654,1.2654 -2.17258,1.35995 -13.04754,1.35995 -9.73941,0 -11.75113,-0.16558 -12.06879,-0.99338 z M 151.87543,379.8765 c -1.55111,-0.32132 -4.19195,-1.191 -5.86852,-1.93264 -2.68948,-1.18968 -2.96592,-1.5024 -2.34826,-2.65649 0.61758,-1.15396 0.22882,-1.59433 -3.2998,-3.73786 -5.25556,-3.19258 -5.68669,-3.67784 -7.37047,-8.29577 l -1.43199,-3.92737 -5.43038,-0.38512 c -5.84264,-0.41434 -53.160564,-2.39122 -57.212018,-2.39024 -2.240766,5.4e-4 -2.51684,0.21251 -3.25688,2.5006 -2.085426,6.44774 -6.5122,12.20376 -11.743158,15.2693 l -2.858364,1.67511 -3.064887,-2.51143 c -1.772755,-1.45264 -3.253941,-2.23212 -3.513316,-1.84889 -2.750852,4.06441 -4.428547,5.58257 -6.169213,5.58257 -3.52062,0 -9.170771,-2.66576 -12.92758,-6.09926 -11.529555,-10.53737 -11.528419,-29.26514 0.0024,-39.80368 4.778315,-4.3671 9.502757,-6.21904 12.894147,-5.05438 1.330159,0.4568 3.84347,1.04314 5.585137,1.30296 2.664597,0.39752 3.166667,0.30187 3.166667,-0.60328 0,-2.79239 7.744454,0.75406 12.31356,5.63881 2.739167,2.92839 4.11362,5.33713 6.84122,11.98932 l 0.698613,1.70383 28.906643,1.14561 c 15.898639,0.63009 30.441429,1.13837 32.317299,1.12951 l 3.41068,-0.0161 1.39825,-3.83333 c 1.22016,-3.34511 1.98218,-4.27019 5.98311,-7.26339 3.46954,-2.59564 4.57015,-3.80788 4.52441,-4.98325 -0.0503,-1.29277 0.61027,-1.82507 3.93955,-3.17453 5.28179,-2.14087 12.41348,-2.21712 17.62693,-0.18845 1.99481,0.77622 3.71024,1.32801 3.81206,1.22618 0.34411,-0.34409 11.56102,-37.74565 11.56102,-38.54888 0,-0.43803 -0.7924,-2.76995 -1.76089,-5.18205 -2.99136,-7.45022 -2.28809,-17.26286 1.70642,-23.80944 0.91349,-1.49712 2.42895,-2.53772 5.33922,-3.6662 3.03601,-1.17724 3.95875,-1.82874 3.64875,-2.5762 -0.97998,-2.36282 -0.51358,-2.9915 3.39984,-4.58296 11.60234,-4.71828 25.23534,0.59034 30.96575,12.05791 1.11883,2.23899 2.03425,4.47297 2.03425,4.9644 0,0.49144 0.525,0.88716 1.16666,0.87938 0.64167,-0.008 8.66667,-2.08464 17.83334,-4.61527 25.17212,-6.94921 25.05274,-6.91682 49.33333,-13.38146 12.46667,-3.3192 23.07388,-6.25532 23.57157,-6.5247 0.4977,-0.26937 1.35491,-1.83407 1.90491,-3.4771 1.27284,-3.80241 2.08236,-4.77807 3.57211,-4.30524 0.90179,0.28622 1.82886,-0.56596 3.79124,-3.48495 1.42867,-2.12509 2.7785,-4.35953 2.99965,-4.9654 0.70866,-1.94158 7.60452,-4.07878 13.16052,-4.07878 6.76951,0 11.54733,1.88109 16.55616,6.51839 11.28112,10.44432 11.28112,27.54631 0,37.99064 -5.00883,4.63729 -9.78665,6.51838 -16.55616,6.51838 -6.7695,0 -11.54732,-1.88109 -16.55616,-6.51838 -3.60328,-3.33602 -7.44384,-9.48289 -7.44384,-11.91401 0,-0.55145 -0.23869,-1.15015 -0.53043,-1.33045 -0.29173,-0.1803 -10.41673,2.38918 -22.5,5.70996 -12.08326,3.32079 -26.76957,7.30326 -32.63624,8.84995 -27.29245,7.19537 -37,10.03317 -37,10.81619 0,0.45266 -0.61391,2.46385 -1.36424,4.4693 -1.12086,2.99575 -1.62636,3.62465 -2.83334,3.52501 -1.00268,-0.0828 -2.50177,0.98816 -4.72189,3.37329 -2.64717,2.8439 -3.10434,3.67346 -2.45539,4.4554 0.64265,0.77434 0.49551,1.15866 -0.7581,1.98006 -5.4221,3.55269 -14.74662,4.31985 -21.41304,1.76172 -2.13363,-0.81875 -3.95614,-1.38433 -4.05001,-1.25686 -0.0939,0.12748 -2.66937,8.63178 -5.72332,18.89845 -3.05395,10.26667 -5.75192,18.74849 -5.99547,18.84849 -0.24356,0.10001 0.40792,1.90001 1.44774,4 8.27159,16.70515 -2.1869,36.62675 -20.14466,38.37207 -2.01022,0.19538 -4.92403,0.0923 -6.47514,-0.229 z"
           id="path306"
           clip-path="url(#clipPath654)" />
      </g>
      <text
         xml:space="preserve"
         transform="matrix(1.8379985,0,0,1.8379985,-155.99035,-194.58697)"
         id="text1392"
         style="font-style:normal;font-variant:normal;font-weight:normal;font-stretch:normal;font-size:24px;font-family:'Arial Rounded MT Bold';-inkscape-font-specification:'Arial Rounded MT Bold, ';text-align:center;white-space:pre;shape-inside:url(#rect1394-0);fill:#000000;fill-opacity:1;stroke-width:0.621"><tspan
           x="139.42871"
           y="247.11999"
           id="tspan709">PNetTorch</tspan></text>
    </g>
  </g>
</svg>
